<svg xmlns="http://www.w3.org/2000/svg" xmlns:xlink="http://www.w3.org/1999/xlink" width="61" height="134" viewBox="0 0 61 134">
  <defs>
    <filter id="Rectangle_262" x="0" y="0" width="61" height="134" filterUnits="userSpaceOnUse">
      <feOffset dy="3" input="SourceAlpha"/>
      <feGaussianBlur stdDeviation="3" result="blur"/>
      <feFlood flood-opacity="0.161"/>
      <feComposite operator="in" in2="blur"/>
      <feComposite in="SourceGraphic"/>
    </filter>
  </defs>
  <g id="Component_161_1" data-name="Component 161 – 1" transform="translate(9 6)">
    <g transform="matrix(1, 0, 0, 1, -9, -6)" filter="url(#Rectangle_262)">
      <path id="Rectangle_262-2" data-name="Rectangle 262" d="M12,0H43a0,0,0,0,1,0,0V116a0,0,0,0,1,0,0H12A12,12,0,0,1,0,104V12A12,12,0,0,1,12,0Z" transform="translate(9 6)" fill="#707070" opacity="0.51"/>
    </g>
    <path id="Path_174" data-name="Path 174" d="M12.8,10.6a2.2,2.2,0,0,1,3.055,0L26.532,21.1a2.084,2.084,0,0,1,.067,2.918L16.08,34.357a2.192,2.192,0,0,1-3.055.011,2.086,2.086,0,0,1,0-2.994l8.93-8.885-9.165-8.9A2.086,2.086,0,0,1,12.8,10.6Z" transform="translate(1.838 36.017)" fill="#eeeeef"/>
  </g>
</svg>
