<svg id="Component_149_1" data-name="Component 149 – 1" xmlns="http://www.w3.org/2000/svg" xmlns:xlink="http://www.w3.org/1999/xlink" width="45" height="48" viewBox="0 0 45 48">
  <defs>
    <linearGradient id="linear-gradient" x2="1.02" y2="1.01" gradientUnits="objectBoundingBox">
      <stop offset="0" stop-color="#3023ae"/>
      <stop offset="1" stop-color="#4ba7b9"/>
    </linearGradient>
    <filter id="Path_7" x="0.75" y="23.25" width="37.125" height="20.25" filterUnits="userSpaceOnUse">
      <feOffset dy="3" input="SourceAlpha"/>
      <feGaussianBlur stdDeviation="3" result="blur"/>
      <feFlood flood-opacity="0.302"/>
      <feComposite operator="in" in2="blur"/>
      <feComposite in="SourceGraphic"/>
    </filter>
    <filter id="Path_8" x="20.125" y="23.25" width="23.625" height="20.25" filterUnits="userSpaceOnUse">
      <feOffset dy="3" input="SourceAlpha"/>
      <feGaussianBlur stdDeviation="3" result="blur-2"/>
      <feFlood flood-opacity="0.302"/>
      <feComposite operator="in" in2="blur-2"/>
      <feComposite in="SourceGraphic"/>
    </filter>
    <filter id="Path_9" x="16.125" y="18.75" width="22.5" height="29.25" filterUnits="userSpaceOnUse">
      <feOffset dy="3" input="SourceAlpha"/>
      <feGaussianBlur stdDeviation="3" result="blur-3"/>
      <feFlood flood-opacity="0.302"/>
      <feComposite operator="in" in2="blur-3"/>
      <feComposite in="SourceGraphic"/>
    </filter>
    <filter id="Path_10" x="0.75" y="15.375" width="23.625" height="20.25" filterUnits="userSpaceOnUse">
      <feOffset dy="3" input="SourceAlpha"/>
      <feGaussianBlur stdDeviation="3" result="blur-4"/>
      <feFlood flood-opacity="0.302"/>
      <feComposite operator="in" in2="blur-4"/>
      <feComposite in="SourceGraphic"/>
    </filter>
    <filter id="Path_11" x="6.625" y="15.375" width="37.125" height="20.25" filterUnits="userSpaceOnUse">
      <feOffset dy="3" input="SourceAlpha"/>
      <feGaussianBlur stdDeviation="3" result="blur-5"/>
      <feFlood flood-opacity="0.302"/>
      <feComposite operator="in" in2="blur-5"/>
      <feComposite in="SourceGraphic"/>
    </filter>
    <filter id="Path_12" x="5.875" y="10.875" width="22.5" height="29.25" filterUnits="userSpaceOnUse">
      <feOffset dy="3" input="SourceAlpha"/>
      <feGaussianBlur stdDeviation="3" result="blur-6"/>
      <feFlood flood-opacity="0.302"/>
      <feComposite operator="in" in2="blur-6"/>
      <feComposite in="SourceGraphic"/>
    </filter>
    <filter id="Path_13" x="0.75" y="7.5" width="37.125" height="20.25" filterUnits="userSpaceOnUse">
      <feOffset dy="3" input="SourceAlpha"/>
      <feGaussianBlur stdDeviation="3" result="blur-7"/>
      <feFlood flood-opacity="0.302"/>
      <feComposite operator="in" in2="blur-7"/>
      <feComposite in="SourceGraphic"/>
    </filter>
    <filter id="Path_14" x="20.125" y="7.5" width="23.625" height="20.25" filterUnits="userSpaceOnUse">
      <feOffset dy="3" input="SourceAlpha"/>
      <feGaussianBlur stdDeviation="3" result="blur-8"/>
      <feFlood flood-opacity="0.302"/>
      <feComposite operator="in" in2="blur-8"/>
      <feComposite in="SourceGraphic"/>
    </filter>
    <filter id="Path_15" x="16.125" y="3" width="22.5" height="29.25" filterUnits="userSpaceOnUse">
      <feOffset dy="3" input="SourceAlpha"/>
      <feGaussianBlur stdDeviation="3" result="blur-9"/>
      <feFlood flood-opacity="0.302"/>
      <feComposite operator="in" in2="blur-9"/>
      <feComposite in="SourceGraphic"/>
    </filter>
  </defs>
  <path id="bg" d="M20,0H45V45H20A20,20,0,0,1,0,25V20A20,20,0,0,1,20,0Z" fill="url(#linear-gradient)"/>
  <g id="Icon_ionic-md-options" data-name="Icon ionic-md-options" transform="translate(9.75 9)">
    <g id="Group_1" data-name="Group 1" transform="translate(0 15.75)">
      <g transform="matrix(1, 0, 0, 1, -9.75, -24.75)" filter="url(#Path_7)">
        <path id="Path_7-2" data-name="Path 7" d="M2.25,27H21.375v2.25H2.25Z" transform="translate(7.5 2.25)" fill="#fff"/>
      </g>
      <g transform="matrix(1, 0, 0, 1, -9.75, -24.75)" filter="url(#Path_8)">
        <path id="Path_8-2" data-name="Path 8" d="M28.125,27H33.75v2.25H28.125Z" transform="translate(1 2.25)" fill="#fff"/>
      </g>
      <g transform="matrix(1, 0, 0, 1, -9.75, -24.75)" filter="url(#Path_9)">
        <path id="Path_9-2" data-name="Path 9" d="M27,31.465a2.268,2.268,0,0,1-2.25,2.285h0a2.268,2.268,0,0,1-2.25-2.285v-6.68A2.268,2.268,0,0,1,24.75,22.5h0A2.268,2.268,0,0,1,27,24.785Z" transform="translate(2.63 2.25)" fill="#fff"/>
      </g>
    </g>
    <g id="Group_2" data-name="Group 2" transform="translate(0 7.875)">
      <g transform="matrix(1, 0, 0, 1, -9.75, -16.88)" filter="url(#Path_10)">
        <path id="Path_10-2" data-name="Path 10" d="M2.25,16.875H7.875v2.25H2.25Z" transform="translate(7.5 4.5)" fill="#fff"/>
      </g>
      <g transform="matrix(1, 0, 0, 1, -9.75, -16.88)" filter="url(#Path_11)">
        <path id="Path_11-2" data-name="Path 11" d="M14.625,16.875H33.75v2.25H14.625Z" transform="translate(1 4.5)" fill="#fff"/>
      </g>
      <g transform="matrix(1, 0, 0, 1, -9.75, -16.88)" filter="url(#Path_12)">
        <path id="Path_12-2" data-name="Path 12" d="M13.5,21.34a2.268,2.268,0,0,1-2.25,2.285h0A2.268,2.268,0,0,1,9,21.34V14.66a2.268,2.268,0,0,1,2.25-2.285h0A2.268,2.268,0,0,1,13.5,14.66Z" transform="translate(5.88 4.5)" fill="#fff"/>
      </g>
    </g>
    <g id="Group_3" data-name="Group 3">
      <g transform="matrix(1, 0, 0, 1, -9.75, -9)" filter="url(#Path_13)">
        <path id="Path_13-2" data-name="Path 13" d="M2.25,6.75H21.375V9H2.25Z" transform="translate(7.5 6.75)" fill="#fff"/>
      </g>
      <g transform="matrix(1, 0, 0, 1, -9.75, -9)" filter="url(#Path_14)">
        <path id="Path_14-2" data-name="Path 14" d="M28.125,6.75H33.75V9H28.125Z" transform="translate(1 6.75)" fill="#fff"/>
      </g>
      <g transform="matrix(1, 0, 0, 1, -9.75, -9)" filter="url(#Path_15)">
        <path id="Path_15-2" data-name="Path 15" d="M27,11.215A2.268,2.268,0,0,1,24.75,13.5h0a2.268,2.268,0,0,1-2.25-2.285V4.535A2.268,2.268,0,0,1,24.75,2.25h0A2.268,2.268,0,0,1,27,4.535Z" transform="translate(2.63 6.75)" fill="#fff"/>
      </g>
    </g>
  </g>
</svg>
