<svg xmlns="http://www.w3.org/2000/svg" xmlns:xlink="http://www.w3.org/1999/xlink" width="63" height="63" viewBox="0 0 63 63">
  <defs>
    <linearGradient id="linear-gradient" x1="-0.311" x2="1.521" y2="1" gradientUnits="objectBoundingBox">
      <stop offset="0" stop-color="#3023ae"/>
      <stop offset="1" stop-color="#4ba7b9"/>
    </linearGradient>
    <filter id="Path_18" x="0" y="0" width="63" height="63" filterUnits="userSpaceOnUse">
      <feOffset dy="3" input="SourceAlpha"/>
      <feGaussianBlur stdDeviation="3" result="blur"/>
      <feFlood flood-opacity="0.302"/>
      <feComposite operator="in" in2="blur"/>
      <feComposite in="SourceGraphic"/>
    </filter>
  </defs>
  <g id="Icon_ionic-ios-arrow-dropleft" data-name="Icon ionic-ios-arrow-dropleft" transform="translate(9 6)">
    <path id="Path_17" data-name="Path 17" d="M26.523,10.6a2.2,2.2,0,0,0-3.055,0L12.792,21.1a2.084,2.084,0,0,0-.067,2.918L23.244,34.357a2.192,2.192,0,0,0,3.055.011,2.086,2.086,0,0,0,0-2.994l-8.93-8.885,9.165-8.9A2.086,2.086,0,0,0,26.523,10.6Z" transform="translate(2.838 0.017)" fill="url(#linear-gradient)"/>
    <g transform="matrix(1, 0, 0, 1, -9, -6)" filter="url(#Path_18)">
      <path id="Path_18-2" data-name="Path 18" d="M25.875,3.375a22.5,22.5,0,1,0,22.5,22.5A22.5,22.5,0,0,0,25.875,3.375ZM39.332,39.332A19.031,19.031,0,1,1,12.418,12.418,19.031,19.031,0,1,1,39.332,39.332Z" transform="translate(5.63 2.63)" fill="url(#linear-gradient)"/>
    </g>
  </g>
</svg>
