<svg xmlns="http://www.w3.org/2000/svg" xmlns:xlink="http://www.w3.org/1999/xlink" width="61" height="134" viewBox="0 0 61 134">
  <defs>
    <filter id="Rectangle_259" x="0" y="0" width="61" height="134" filterUnits="userSpaceOnUse">
      <feOffset dy="3" input="SourceAlpha"/>
      <feGaussianBlur stdDeviation="3" result="blur"/>
      <feFlood flood-opacity="0.161"/>
      <feComposite operator="in" in2="blur"/>
      <feComposite in="SourceGraphic"/>
    </filter>
  </defs>
  <g id="Component_162_1" data-name="Component 162 – 1" transform="translate(9 6)">
    <g transform="matrix(1, 0, 0, 1, -9, -6)" filter="url(#Rectangle_259)">
      <path id="Rectangle_259-2" data-name="Rectangle 259" d="M0,0H31A12,12,0,0,1,43,12v92a12,12,0,0,1-12,12H0a0,0,0,0,1,0,0V0A0,0,0,0,1,0,0Z" transform="translate(9 6)" fill="#707070" opacity="0.5"/>
    </g>
    <path id="Path_173" data-name="Path 173" d="M26.523,10.6a2.2,2.2,0,0,0-3.055,0L12.792,21.1a2.084,2.084,0,0,0-.067,2.918L23.244,34.357a2.192,2.192,0,0,0,3.055.011,2.086,2.086,0,0,0,0-2.994l-8.93-8.885,9.165-8.9A2.086,2.086,0,0,0,26.523,10.6Z" transform="translate(1.838 32.017)" fill="#eeeeef"/>
  </g>
</svg>
