<svg xmlns="http://www.w3.org/2000/svg" xmlns:xlink="http://www.w3.org/1999/xlink" width="41" height="41" viewBox="0 0 41 41">
  <defs>
    <linearGradient id="linear-gradient" x1="1.311" x2="-0.521" y2="1" gradientUnits="objectBoundingBox">
      <stop offset="0" stop-color="#3023ae"/>
      <stop offset="1" stop-color="#4ba7b9"/>
    </linearGradient>
    <filter id="Path_18" x="0" y="0" width="41" height="41" filterUnits="userSpaceOnUse">
      <feOffset dy="3" input="SourceAlpha"/>
      <feGaussianBlur stdDeviation="3" result="blur"/>
      <feFlood flood-opacity="0.302"/>
      <feComposite operator="in" in2="blur"/>
      <feComposite in="SourceGraphic"/>
    </filter>
    <linearGradient id="linear-gradient-3" x1="-0.311" y1="0" x2="1.521" y2="1" xlink:href="#linear-gradient"/>
  </defs>
  <g id="Component_160_2" data-name="Component 160 – 2" transform="translate(9 6)">
    <g transform="matrix(1, 0, 0, 1, -9, -6)" filter="url(#Path_18)">
      <path id="Path_18-2" data-name="Path 18" d="M14.875,3.375a11.5,11.5,0,1,1-11.5,11.5A11.5,11.5,0,0,1,14.875,3.375ZM8,21.753A9.727,9.727,0,1,0,21.753,8,9.727,9.727,0,1,0,8,21.753Z" transform="translate(5.63 2.62)" fill="url(#linear-gradient)"/>
    </g>
    <g id="Component_152_1" data-name="Component 152 – 1" transform="translate(17.429 6) rotate(90)">
      <path id="Path_17" data-name="Path 17" d="M12.46,10.254a1.072,1.072,0,0,1,1.426,0l4.982,4.619a.88.88,0,0,1,.031,1.284L13.99,20.708a1.068,1.068,0,0,1-1.426,0,.882.882,0,0,1,0-1.318l4.167-3.909-4.277-3.914A.882.882,0,0,1,12.46,10.254Z" transform="translate(-12.162 -9.983)" fill="url(#linear-gradient)"/>
      <path id="Path_159" data-name="Path 159" d="M18.864,10.254a1.072,1.072,0,0,0-1.426,0l-4.982,4.619a.88.88,0,0,0-.031,1.284l4.909,4.551a1.068,1.068,0,0,0,1.426,0,.882.882,0,0,0,0-1.318l-4.167-3.909,4.277-3.914A.882.882,0,0,0,18.864,10.254Z" transform="translate(-7.162 -9.983)" fill="url(#linear-gradient-3)"/>
    </g>
  </g>
</svg>
