<?xml version="1.0" encoding="utf-8"?>
<svg width="322px" height="187px" viewBox="0 0 322 187" version="1.1" xmlns:xlink="http://www.w3.org/1999/xlink" xmlns="http://www.w3.org/2000/svg">
  <g id="Group" transform="translate(1.5 1.5)">
    <path d="M0 92C0 41.1898 71.2315 0 159.1 0C246.969 0 318.2 41.1898 318.2 92C318.2 142.81 246.969 184 159.1 184C71.2315 184 0 142.81 0 92Z" id="Ellipse" fill="#FFFFFF" fill-rule="evenodd" stroke="#000000" stroke-width="3" />
    <path d="M158.165 0L158.165 92" id="Line" fill="none" fill-rule="evenodd" stroke="#000000" stroke-width="2" stroke-linecap="square" />
    <path d="M0 92L158.165 92" id="Line-2" fill="none" fill-rule="evenodd" stroke="#000000" stroke-width="2" stroke-linecap="square" />
    <g id="semi-major-axis" transform="translate(5.8777466 95.34848)">
      <path d="M49.9963 4.97017Q49.5289 4.97017 49.1909 4.65447Q48.8528 4.33878 48.8528 3.89631Q48.8528 3.45383 49.1909 3.14063Q49.5289 2.82741 49.9963 2.82741Q50.4686 2.82741 50.8066 3.14063Q51.1447 3.45383 51.1447 3.89631Q51.1447 4.33878 50.8066 4.65447Q50.4686 4.97017 49.9963 4.97017ZM81.2477 4.97017Q80.7803 4.97017 80.4423 4.65447Q80.1042 4.33878 80.1042 3.89631Q80.1042 3.45383 80.4423 3.14063Q80.7803 2.82741 81.2477 2.82741Q81.72 2.82741 82.058 3.14063Q82.3961 3.45383 82.3961 3.89631Q82.3961 4.33878 82.058 4.65447Q81.72 4.97017 81.2477 4.97017ZM122.099 4.97017Q121.632 4.97017 121.294 4.65447Q120.956 4.33878 120.956 3.89631Q120.956 3.45383 121.294 3.14063Q121.632 2.82741 122.099 2.82741Q122.572 2.82741 122.91 3.14063Q123.248 3.45383 123.248 3.89631Q123.248 4.33878 122.91 4.65447Q122.572 4.97017 122.099 4.97017ZM92.5928 13.5909L92.5928 5.95455L94.6461 5.95455L94.6461 7.28693L94.7257 7.28693Q94.9345 6.57599 95.4267 6.21058Q95.9188 5.84517 96.5602 5.84517Q96.9132 5.84517 97.2264 5.91974L97.2264 7.79901Q97.0772 7.74929 96.8137 7.71697Q96.5502 7.68466 96.3315 7.68466Q95.6305 7.68466 95.1706 8.12464Q94.7107 8.56463 94.7107 9.2706L94.7107 13.5909L92.5928 13.5909ZM26.2867 8.1321L24.3478 8.25142Q24.2683 7.88352 23.9451 7.62003Q23.622 7.35653 23.0701 7.35653Q22.5779 7.35653 22.2374 7.56285Q21.8968 7.76918 21.9018 8.11222Q21.8968 8.38565 22.1181 8.57457Q22.3393 8.76349 22.8713 8.87784L24.2534 9.15625Q26.4558 9.60866 26.4607 11.2244Q26.4607 11.9751 26.0208 12.5419Q25.5808 13.1087 24.8151 13.4244Q24.0495 13.7401 23.0602 13.7401Q21.5438 13.7401 20.644 13.1062Q19.7441 12.4723 19.595 11.3786L21.6781 11.2692Q21.7775 11.7365 22.1379 11.9751Q22.4984 12.2138 23.0651 12.2138Q23.622 12.2138 23.9625 11.995Q24.3031 11.7763 24.308 11.4382Q24.2931 10.8714 23.3286 10.6776L22.0062 10.4141Q19.7889 9.97159 19.7988 8.23153Q19.7938 7.12784 20.6813 6.49148Q21.5687 5.85511 23.0353 5.85511Q24.482 5.85511 25.3148 6.46662Q26.1475 7.07813 26.2867 8.1321ZM31.2782 13.7401Q30.1049 13.7401 29.2548 13.2603Q28.4046 12.7805 27.9472 11.8981Q27.4899 11.0156 27.4899 9.80753Q27.4899 8.62926 27.9472 7.73935Q28.4046 6.84943 29.2374 6.35227Q30.0701 5.85511 31.1937 5.85511Q32.2029 5.85511 33.0158 6.28267Q33.8286 6.71023 34.3059 7.5728Q34.7832 8.43537 34.7832 9.73295L34.7832 10.3146L29.5829 10.3146L29.5829 10.3196Q29.5829 11.1747 30.0502 11.6669Q30.5176 12.1591 31.313 12.1591Q31.845 12.1591 32.2328 11.9354Q32.6205 11.7116 32.7796 11.2741L34.7384 11.4034Q34.5147 12.4673 33.6049 13.1037Q32.6951 13.7401 31.2782 13.7401ZM36.1653 5.95455L36.1653 13.5909L38.2832 13.5909L38.2832 9.0071Q38.2832 8.37074 38.6411 7.98544Q38.9991 7.60014 39.5261 7.60014Q40.0481 7.60014 40.3688 7.93324Q40.6894 8.26634 40.6894 8.82813L40.6894 13.5909L42.7427 13.5909L42.7427 8.92756Q42.7427 8.33594 43.0659 7.96804Q43.389 7.60014 43.9657 7.60014Q44.4728 7.60014 44.8109 7.91832Q45.1489 8.23651 45.1489 8.87287L45.1489 13.5909L47.2619 13.5909L47.2619 8.45526Q47.2619 7.21236 46.5932 6.53374Q45.9245 5.85511 44.8556 5.85511Q44.0154 5.85511 43.4014 6.25035Q42.7874 6.6456 42.5538 7.30185L42.4742 7.30185Q42.2903 6.63565 41.7384 6.24538Q41.1866 5.85511 40.4011 5.85511Q39.6305 5.85511 39.0712 6.24041Q38.5119 6.62571 38.2732 7.30185L38.1838 7.30185L38.1838 5.95455L36.1653 5.95455ZM59.3031 13.5909L59.3031 5.95455L61.3215 5.95455L61.3215 7.30185L61.411 7.30185Q61.6497 6.62571 62.209 6.24041Q62.7683 5.85511 63.5389 5.85511Q64.3244 5.85511 64.8762 6.24538Q65.4281 6.63565 65.612 7.30185L65.6916 7.30185Q65.9252 6.6456 66.5392 6.25035Q67.1532 5.85511 67.9934 5.85511Q69.0623 5.85511 69.731 6.53374Q70.3997 7.21236 70.3997 8.45526L70.3997 13.5909L68.2867 13.5909L68.2867 8.87287Q68.2867 8.23651 67.9487 7.91832Q67.6106 7.60014 67.1035 7.60014Q66.5268 7.60014 66.2036 7.96804Q65.8805 8.33594 65.8805 8.92756L65.8805 13.5909L63.8272 13.5909L63.8272 8.82813Q63.8272 8.26634 63.5066 7.93324Q63.1859 7.60014 62.6639 7.60014Q62.1369 7.60014 61.7789 7.98544Q61.421 8.37074 61.421 9.0071L61.421 13.5909L59.3031 13.5909ZM72.433 13.1634Q73.1539 13.7351 74.2477 13.7351Q75.0928 13.7351 75.6472 13.3995Q76.2015 13.0639 76.4799 12.532L76.5396 12.532L76.5396 13.5909L78.5481 13.5909L78.5481 8.44034Q78.5481 7.53054 78.0932 6.96129Q77.6383 6.39204 76.8975 6.12358Q76.1568 5.85511 75.3066 5.85511Q73.9345 5.85511 73.0669 6.46662Q72.1994 7.07813 71.9806 8.12216L73.9394 8.28125Q74.0488 7.89844 74.3869 7.64986Q74.7249 7.40128 75.2967 7.40128Q75.8386 7.40128 76.1344 7.6598Q76.4302 7.91832 76.4302 8.39063L76.4302 8.42045Q76.4302 8.78835 76.0026 8.89773Q75.5751 9.0071 74.5808 9.10653Q73.8251 9.17614 73.1713 9.40234Q72.5176 9.62855 72.1149 10.1158Q71.7122 10.603 71.7122 11.4581Q71.7122 12.5916 72.433 13.1634ZM85.4512 13.2454Q86.2938 13.7401 87.4522 13.7401Q88.6106 13.7401 89.4533 13.2454Q90.296 12.7507 90.7534 11.8633Q91.2107 10.9759 91.2107 9.80256Q91.2107 8.61932 90.7534 7.73189Q90.296 6.84446 89.4533 6.34979Q88.6106 5.85511 87.4522 5.85511Q86.2938 5.85511 85.4512 6.34979Q84.6085 6.84446 84.1511 7.73189Q83.6937 8.61932 83.6937 9.80256Q83.6937 10.9759 84.1511 11.8633Q84.6085 12.7507 85.4512 13.2454ZM107.055 13.7351Q105.961 13.7351 105.241 13.1634Q104.52 12.5916 104.52 11.4581Q104.52 10.603 104.922 10.1158Q105.325 9.62855 105.979 9.40234Q106.633 9.17614 107.388 9.10653Q108.383 9.0071 108.81 8.89773Q109.238 8.78835 109.238 8.42045L109.238 8.39063Q109.238 7.91832 108.942 7.6598Q108.646 7.40128 108.104 7.40128Q107.532 7.40128 107.194 7.64986Q106.856 7.89844 106.747 8.28125L104.788 8.12216Q105.007 7.07813 105.874 6.46662Q106.742 5.85511 108.114 5.85511Q108.964 5.85511 109.705 6.12358Q110.446 6.39204 110.901 6.96129Q111.356 7.53054 111.356 8.44034L111.356 13.5909L109.347 13.5909L109.347 12.532L109.287 12.532Q109.009 13.0639 108.455 13.3995Q107.9 13.7351 107.055 13.7351ZM129.258 8.25142L131.197 8.1321Q131.058 7.07813 130.225 6.46662Q129.393 5.85511 127.946 5.85511Q126.479 5.85511 125.592 6.49148Q124.704 7.12784 124.709 8.23153Q124.699 9.97159 126.917 10.4141L128.239 10.6776Q129.204 10.8714 129.219 11.4382Q129.214 11.7763 128.873 11.995Q128.532 12.2138 127.976 12.2138Q127.409 12.2138 127.048 11.9751Q126.688 11.7365 126.589 11.2692L124.505 11.3786Q124.655 12.4723 125.554 13.1062Q126.454 13.7401 127.971 13.7401Q128.96 13.7401 129.726 13.4244Q130.491 13.1087 130.931 12.5419Q131.371 11.9751 131.371 11.2244Q131.366 9.60866 129.164 9.15625L127.782 8.87784Q127.25 8.76349 127.029 8.57457Q126.807 8.38565 126.812 8.11222Q126.807 7.76918 127.148 7.56285Q127.488 7.35653 127.981 7.35653Q128.532 7.35653 128.856 7.62003Q129.179 7.88352 129.258 8.25142ZM48.9323 13.5909L48.9323 5.95455L51.0502 5.95455L51.0502 13.5909L48.9323 13.5909ZM80.1937 5.95455L82.3116 5.95455L82.3116 13.9688Q82.3116 15.2962 81.541 15.8754Q80.7704 16.4545 79.4181 16.4545Q79.3088 16.4545 79.2068 16.4521Q79.1049 16.4496 78.9906 16.4446L78.9906 14.7891Q79.0751 14.794 79.1397 14.7965Q79.2044 14.799 79.269 14.799Q79.7811 14.799 79.9874 14.5827Q80.1937 14.3665 80.1937 13.9339L80.1937 5.95455ZM116.173 8.62429L114.771 5.95455L112.584 5.95455L114.771 9.77273L112.504 13.5909L114.692 13.5909L116.173 10.951L117.679 13.5909L119.842 13.5909L117.57 9.77273L119.782 5.95455L117.61 5.95455L116.173 8.62429ZM121.035 5.95455L123.153 5.95455L123.153 13.5909L121.035 13.5909L121.035 5.95455ZM29.5829 9.00213L32.7896 9.00213Q32.7846 8.32102 32.3521 7.87855Q31.9195 7.43608 31.2285 7.43608Q30.5225 7.43608 30.0701 7.89347Q29.6177 8.35085 29.5829 9.00213ZM88.6529 11.4432Q88.2477 12.0994 87.4622 12.0994Q86.6617 12.0994 86.2541 11.4432Q85.8464 10.7869 85.8464 9.78764Q85.8464 8.78835 86.2541 8.12962Q86.6617 7.47088 87.4622 7.47088Q88.2477 7.47088 88.6529 8.12962Q89.058 8.78835 89.058 9.78764Q89.058 10.7869 88.6529 11.4432ZM57.4984 10.25L57.4984 8.5696L52.8549 8.5696L52.8549 10.25L57.4984 10.25ZM103.073 10.25L103.073 8.5696L98.4295 8.5696L98.4295 10.25L103.073 10.25ZM75.9977 11.8683Q75.5502 12.2734 74.8542 12.2734Q74.367 12.2734 74.0513 12.0497Q73.7356 11.826 73.7356 11.3885Q73.7356 10.9411 74.0761 10.7074Q74.4167 10.4737 74.9735 10.3942Q75.2072 10.3594 75.503 10.3121Q75.7988 10.2649 76.0598 10.2003Q76.3208 10.1357 76.4451 10.0511L76.4451 10.8615Q76.4451 11.4631 75.9977 11.8683ZM107.662 12.2734Q108.358 12.2734 108.805 11.8683Q109.253 11.4631 109.253 10.8615L109.253 10.0511Q109.128 10.1357 108.867 10.2003Q108.606 10.2649 108.311 10.3121Q108.015 10.3594 107.781 10.3942Q107.224 10.4737 106.884 10.7074Q106.543 10.9411 106.543 11.3885Q106.543 11.826 106.859 12.0497Q107.175 12.2734 107.662 12.2734Z" />
    </g>
    <g id="semi-minor-axis" transform="translate(107.40251 25.65152)">
      <path d="M49.7054 4.97017Q49.2381 4.97017 48.9 4.65447Q48.5619 4.33878 48.5619 3.89631Q48.5619 3.45383 48.9 3.14063Q49.2381 2.82741 49.7054 2.82741Q50.1777 2.82741 50.5158 3.14063Q50.8539 3.45383 50.8539 3.89631Q50.8539 4.33878 50.5158 4.65447Q50.1777 4.97017 49.7054 4.97017ZM72.0378 4.65447Q72.3759 4.97017 72.8432 4.97017Q73.3155 4.97017 73.6536 4.65447Q73.9916 4.33878 73.9916 3.89631Q73.9916 3.45383 73.6536 3.14063Q73.3155 2.82741 72.8432 2.82741Q72.3759 2.82741 72.0378 3.14063Q71.6997 3.45383 71.6997 3.89631Q71.6997 4.33878 72.0378 4.65447ZM122.39 4.97017Q121.923 4.97017 121.585 4.65447Q121.247 4.33878 121.247 3.89631Q121.247 3.45383 121.585 3.14063Q121.923 2.82741 122.39 2.82741Q122.862 2.82741 123.2 3.14063Q123.538 3.45383 123.538 3.89631Q123.538 4.33878 123.2 4.65447Q122.862 4.97017 122.39 4.97017ZM92.8837 13.5909L92.8837 5.95455L94.937 5.95455L94.937 7.28693L95.0165 7.28693Q95.2253 6.57599 95.7175 6.21058Q96.2097 5.84517 96.851 5.84517Q97.204 5.84517 97.5172 5.91974L97.5172 7.79901Q97.3681 7.74929 97.1046 7.71697Q96.8411 7.68466 96.6223 7.68466Q95.9213 7.68466 95.4615 8.12464Q95.0016 8.56463 95.0016 9.2706L95.0016 13.5909L92.8837 13.5909ZM25.9959 8.1321L24.057 8.25142Q23.9774 7.88352 23.6543 7.62003Q23.3311 7.35653 22.7793 7.35653Q22.2871 7.35653 21.9465 7.56285Q21.606 7.76918 21.611 8.11222Q21.606 8.38565 21.8272 8.57457Q22.0485 8.76349 22.5804 8.87784L23.9625 9.15625Q26.1649 9.60866 26.1699 11.2244Q26.1699 11.9751 25.7299 12.5419Q25.2899 13.1087 24.5243 13.4244Q23.7587 13.7401 22.7693 13.7401Q21.253 13.7401 20.3531 13.1062Q19.4533 12.4723 19.3041 11.3786L21.3872 11.2692Q21.4867 11.7365 21.8471 11.9751Q22.2075 12.2138 22.7743 12.2138Q23.3311 12.2138 23.6717 11.995Q24.0122 11.7763 24.0172 11.4382Q24.0023 10.8714 23.0378 10.6776L21.7154 10.4141Q19.498 9.97159 19.508 8.23153Q19.503 7.12784 20.3904 6.49148Q21.2779 5.85511 22.7445 5.85511Q24.1912 5.85511 25.0239 6.46662Q25.8567 7.07813 25.9959 8.1321ZM30.9874 13.7401Q29.8141 13.7401 28.9639 13.2603Q28.1138 12.7805 27.6564 11.8981Q27.199 11.0156 27.199 9.80753Q27.199 8.62926 27.6564 7.73935Q28.1138 6.84943 28.9465 6.35227Q29.7793 5.85511 30.9029 5.85511Q31.9121 5.85511 32.7249 6.28267Q33.5378 6.71023 34.0151 7.5728Q34.4923 8.43537 34.4923 9.73295L34.4923 10.3146L29.2921 10.3146L29.2921 10.3196Q29.2921 11.1747 29.7594 11.6669Q30.2267 12.1591 31.0222 12.1591Q31.5541 12.1591 31.9419 11.9354Q32.3297 11.7116 32.4888 11.2741L34.4476 11.4034Q34.2239 12.4673 33.3141 13.1037Q32.4043 13.7401 30.9874 13.7401ZM35.8744 5.95455L35.8744 13.5909L37.9923 13.5909L37.9923 9.0071Q37.9923 8.37074 38.3503 7.98544Q38.7083 7.60014 39.2352 7.60014Q39.7573 7.60014 40.0779 7.93324Q40.3986 8.26634 40.3986 8.82813L40.3986 13.5909L42.4519 13.5909L42.4519 8.92756Q42.4519 8.33594 42.775 7.96804Q43.0982 7.60014 43.6749 7.60014Q44.182 7.60014 44.52 7.91832Q44.8581 8.23651 44.8581 8.87287L44.8581 13.5909L46.971 13.5909L46.971 8.45526Q46.971 7.21236 46.3024 6.53374Q45.6337 5.85511 44.5648 5.85511Q43.7246 5.85511 43.1106 6.25035Q42.4966 6.6456 42.2629 7.30185L42.1834 7.30185Q41.9994 6.63565 41.4476 6.24538Q40.8958 5.85511 40.1102 5.85511Q39.3396 5.85511 38.7803 6.24041Q38.221 6.62571 37.9824 7.30185L37.8929 7.30185L37.8929 5.95455L35.8744 5.95455ZM59.0122 13.5909L59.0122 5.95455L61.0307 5.95455L61.0307 7.30185L61.1202 7.30185Q61.3588 6.62571 61.9181 6.24041Q62.4774 5.85511 63.248 5.85511Q64.0335 5.85511 64.5854 6.24538Q65.1372 6.63565 65.3212 7.30185L65.4007 7.30185Q65.6344 6.6456 66.2484 6.25035Q66.8624 5.85511 67.7026 5.85511Q68.7715 5.85511 69.4401 6.53374Q70.1088 7.21236 70.1088 8.45526L70.1088 13.5909L67.9959 13.5909L67.9959 8.87287Q67.9959 8.23651 67.6578 7.91832Q67.3198 7.60014 66.8127 7.60014Q66.236 7.60014 65.9128 7.96804Q65.5896 8.33594 65.5896 8.92756L65.5896 13.5909L63.5364 13.5909L63.5364 8.82813Q63.5364 8.26634 63.2157 7.93324Q62.895 7.60014 62.373 7.60014Q61.846 7.60014 61.4881 7.98544Q61.1301 8.37074 61.1301 9.0071L61.1301 13.5909L59.0122 13.5909ZM77.7054 9.17614L77.7054 13.5909L75.5875 13.5909L75.5875 5.95455L77.606 5.95455L77.606 7.30185L77.6955 7.30185Q77.954 6.63565 78.5481 6.24538Q79.1422 5.85511 79.9923 5.85511Q81.1855 5.85511 81.9064 6.62322Q82.6273 7.39134 82.6273 8.72869L82.6273 13.5909L80.5094 13.5909L80.5094 9.10653Q80.5144 8.40554 80.1514 8.0103Q79.7885 7.61506 79.1521 7.61506Q78.5108 7.61506 78.1106 8.02521Q77.7104 8.43537 77.7054 9.17614ZM85.742 13.2454Q86.5847 13.7401 87.7431 13.7401Q88.9014 13.7401 89.7441 13.2454Q90.5868 12.7507 91.0442 11.8633Q91.5016 10.9759 91.5016 9.80256Q91.5016 8.61932 91.0442 7.73189Q90.5868 6.84446 89.7441 6.34979Q88.9014 5.85511 87.7431 5.85511Q86.5847 5.85511 85.742 6.34979Q84.8993 6.84446 84.4419 7.73189Q83.9845 8.61932 83.9845 9.80256Q83.9845 10.9759 84.4419 11.8633Q84.8993 12.7507 85.742 13.2454ZM107.346 13.7351Q106.252 13.7351 105.531 13.1634Q104.811 12.5916 104.811 11.4581Q104.811 10.603 105.213 10.1158Q105.616 9.62855 106.27 9.40234Q106.923 9.17614 107.679 9.10653Q108.673 9.0071 109.101 8.89773Q109.529 8.78835 109.529 8.42045L109.529 8.39063Q109.529 7.91832 109.233 7.6598Q108.937 7.40128 108.395 7.40128Q107.823 7.40128 107.485 7.64986Q107.147 7.89844 107.038 8.28125L105.079 8.12216Q105.298 7.07813 106.165 6.46662Q107.033 5.85511 108.405 5.85511Q109.255 5.85511 109.996 6.12358Q110.737 6.39204 111.192 6.96129Q111.646 7.53054 111.646 8.44034L111.646 13.5909L109.638 13.5909L109.638 12.532L109.578 12.532Q109.3 13.0639 108.746 13.3995Q108.191 13.7351 107.346 13.7351ZM129.549 8.25142L131.488 8.1321Q131.349 7.07813 130.516 6.46662Q129.683 5.85511 128.237 5.85511Q126.77 5.85511 125.883 6.49148Q124.995 7.12784 125 8.23153Q124.99 9.97159 127.208 10.4141L128.53 10.6776Q129.494 10.8714 129.509 11.4382Q129.504 11.7763 129.164 11.995Q128.823 12.2138 128.266 12.2138Q127.7 12.2138 127.339 11.9751Q126.979 11.7365 126.879 11.2692L124.796 11.3786Q124.945 12.4723 125.845 13.1062Q126.745 13.7401 128.262 13.7401Q129.251 13.7401 130.016 13.4244Q130.782 13.1087 131.222 12.5419Q131.662 11.9751 131.662 11.2244Q131.657 9.60866 129.455 9.15625L128.073 8.87784Q127.541 8.76349 127.319 8.57457Q127.098 8.38565 127.103 8.11222Q127.098 7.76918 127.439 7.56285Q127.779 7.35653 128.271 7.35653Q128.823 7.35653 129.146 7.62003Q129.47 7.88352 129.549 8.25142ZM48.6415 13.5909L48.6415 5.95455L50.7594 5.95455L50.7594 13.5909L48.6415 13.5909ZM71.7793 5.95455L71.7793 13.5909L73.8972 13.5909L73.8972 5.95455L71.7793 5.95455ZM116.464 8.62429L115.062 5.95455L112.874 5.95455L115.062 9.77273L112.795 13.5909L114.982 13.5909L116.464 10.951L117.97 13.5909L120.133 13.5909L117.861 9.77273L120.073 5.95455L117.901 5.95455L116.464 8.62429ZM121.326 5.95455L123.444 5.95455L123.444 13.5909L121.326 13.5909L121.326 5.95455ZM29.2921 9.00213L32.4987 9.00213Q32.4938 8.32102 32.0612 7.87855Q31.6287 7.43608 30.9377 7.43608Q30.2317 7.43608 29.7793 7.89347Q29.3269 8.35085 29.2921 9.00213ZM88.9437 11.4432Q88.5385 12.0994 87.753 12.0994Q86.9526 12.0994 86.5449 11.4432Q86.1372 10.7869 86.1372 9.78764Q86.1372 8.78835 86.5449 8.12962Q86.9526 7.47088 87.753 7.47088Q88.5385 7.47088 88.9437 8.12962Q89.3489 8.78835 89.3489 9.78764Q89.3489 10.7869 88.9437 11.4432ZM57.2075 10.25L57.2075 8.5696L52.5641 8.5696L52.5641 10.25L57.2075 10.25ZM103.364 10.25L103.364 8.5696L98.7203 8.5696L98.7203 10.25L103.364 10.25ZM107.953 12.2734Q108.649 12.2734 109.096 11.8683Q109.543 11.4631 109.543 10.8615L109.543 10.0511Q109.419 10.1357 109.158 10.2003Q108.897 10.2649 108.601 10.3121Q108.306 10.3594 108.072 10.3942Q107.515 10.4737 107.175 10.7074Q106.834 10.9411 106.834 11.3885Q106.834 11.826 107.15 12.0497Q107.465 12.2734 107.953 12.2734Z" />
    </g>
  </g>
</svg>